<?xml version="1.0" encoding="utf-8"?>
<svg version="1.1" id="Layer_1"
xmlns="http://www.w3.org/2000/svg"
xmlns:xlink="http://www.w3.org/1999/xlink"
width="550px" height="400px"
xml:space="preserve">
<g id="PathID_1" transform="matrix(1.44505, 0, 0, 1.44505, 144.05, 200.9)" opacity="1">
<path style="fill:#520F0F;fill-opacity:1" d="M34.2 -36.85L39.7 -36.85L39.7 0L33.15 0L8.4 -29.5L8.4 0L2.85 0L2.85 -36.85L9.4 -36.85L34.2 -7.35L34.2 -36.85" />
</g>
<g id="PathID_2" transform="matrix(1.44505, 0, 0, 1.44505, 144.05, 200.9)" opacity="1">
</g>
<g id="PathID_3" transform="matrix(1.44505, 0, 0, 1.44505, 209.35, 200.9)" opacity="1">
<path style="fill:#926161;fill-opacity:1" d="M32.35 -11.35L32.35 -11.25L32.35 5.1Q32.35 6.5 31.85 7.7Q31.3 8.9 30.4 9.8Q29.45 10.75 28.25 11.25Q27.05 11.75 25.7 11.75L7.35 11.75L7.35 6.25L25.7 6.25Q26.15 6.25 26.5 5.9Q26.8 5.55 26.8 5.1L26.8 0L8.8 0Q7.4 0 6.2 -0.5Q5 -1 4.1 -1.95Q3.15 -2.85 2.65 -4.05Q2.15 -5.25 2.15 -6.65L2.15 -29.6L7.65 -29.6L7.65 -6.65Q7.65 -6.2 8 -5.85Q8.35 -5.5 8.8 -5.5L25.7 -5.5Q26.15 -5.5 26.5 -5.85Q26.8 -6.2 26.8 -6.65L26.8 -29.6L32.35 -29.6L32.35 -11.35" />
</g>
<g id="PathID_4" transform="matrix(1.44505, 0, 0, 1.44505, 209.35, 200.9)" opacity="1">
</g>
<g id="PathID_5" transform="matrix(1.44505, 0, 0, 1.44505, 260, 200.9)" opacity="1">
<path style="fill:#926161;fill-opacity:1" d="M32.9 -29.7L32.9 -6.65Q32.9 -5.25 32.4 -4.05Q31.9 -2.85 30.95 -1.95Q30.05 -1 28.85 -0.5Q27.65 0 26.25 0L9.35 0Q8 0 6.8 -0.5Q5.6 -1 4.65 -1.95Q3.75 -2.85 3.2 -4.05Q2.7 -5.25 2.7 -6.65L2.7 -29.7L8.25 -29.7L8.25 -6.65Q8.25 -6.2 8.55 -5.85Q8.9 -5.5 9.35 -5.5L26.25 -5.5Q26.7 -5.5 27.05 -5.85Q27.4 -6.2 27.4 -6.65L27.4 -29.7L32.9 -29.7" />
</g>
<g id="PathID_6" transform="matrix(1.44505, 0, 0, 1.44505, 260, 200.9)" opacity="1">
</g>
<g id="PathID_7" transform="matrix(1.44505, 0, 0, 1.44505, 311.35, 200.9)" opacity="1">
<path style="fill:#926161;fill-opacity:1" d="M40.7 -29.7Q42.05 -29.7 43.25 -29.2Q44.45 -28.65 45.4 -27.75Q46.3 -26.8 46.85 -25.6Q47.35 -24.4 47.35 -23.05L47.35 0L41.85 0L41.85 -23.05Q41.85 -23.5 41.55 -23.85Q41.2 -24.15 40.7 -24.15L28.95 -24.15Q28.5 -24.15 28.15 -23.85Q27.85 -23.5 27.85 -23.05L27.85 0L22.3 0L22.3 -23.05Q22.3 -23.5 22 -23.85Q21.65 -24.15 21.2 -24.15L9.4 -24.15Q8.95 -24.15 8.6 -23.85Q8.3 -23.5 8.3 -23.05L8.3 0L2.75 0L2.75 -29.7L40.7 -29.7" />
</g>
<g id="PathID_8" transform="matrix(1.44505, 0, 0, 1.44505, 311.35, 200.9)" opacity="1">
</g>
<g id="PathID_9" transform="matrix(1.44505, 0, 0, 1.44505, 383.65, 200.9)" opacity="1">
<path style="fill:#926161;fill-opacity:1" d="M26.3 -29.7Q27.7 -29.7 28.9 -29.2Q30.1 -28.65 31 -27.75Q31.95 -26.8 32.45 -25.6Q32.95 -24.4 32.95 -23.05L32.95 -6.65Q32.95 -5.25 32.45 -4.05Q31.95 -2.85 31 -1.95Q30.1 -1 28.9 -0.5Q27.7 0 26.3 0L2.75 0L2.75 -39.4L8.3 -39.4L8.3 -29.7L26.3 -29.7M27.45 -23.05Q27.45 -23.5 27.1 -23.85Q26.75 -24.15 26.3 -24.15L9.4 -24.15Q8.95 -24.15 8.6 -23.85Q8.3 -23.5 8.3 -23.05L8.3 -6.65Q8.3 -6.2 8.6 -5.85Q8.95 -5.5 9.4 -5.5L26.3 -5.5Q26.75 -5.5 27.1 -5.85Q27.45 -6.2 27.45 -6.65L27.45 -23.05" />
</g>
<g id="PathID_10" transform="matrix(1.44505, 0, 0, 1.44505, 383.65, 200.9)" opacity="1">
</g>
<g id="PathID_11" transform="matrix(1.44505, 0, 0, 1.44505, 432.9, 200.9)" opacity="1">
<path style="fill:#926161;fill-opacity:1" d="M26.2 -29.7Q27.6 -29.7 28.8 -29.2Q30 -28.65 30.9 -27.75Q31.85 -26.8 32.35 -25.6Q32.85 -24.4 32.85 -23.05L32.85 0L9.3 0Q7.95 0 6.75 -0.5Q5.55 -1 4.6 -1.95Q3.7 -2.85 3.15 -4.05Q2.65 -5.25 2.65 -6.65L2.65 -17.6L27.35 -17.6L27.35 -23.05Q27.35 -23.5 27 -23.85Q26.65 -24.15 26.2 -24.15L2.65 -24.15L2.65 -29.7L26.2 -29.7M27.35 -12.05L8.2 -12.05L8.2 -6.65Q8.2 -6.2 8.5 -5.85Q8.85 -5.5 9.3 -5.5L27.35 -5.5L27.35 -12.05" />
</g>
<g id="PathID_12" transform="matrix(1.44505, 0, 0, 1.44505, 432.9, 200.9)" opacity="1">
</g>
<g id="PathID_13" transform="matrix(1.44505, 0, 0, 1.44505, 484.25, 200.9)" opacity="1">
<path style="fill:#926161;fill-opacity:1" d="M26.3 -29.7Q27.7 -29.7 28.9 -29.2Q30.1 -28.65 31 -27.75Q31.95 -26.8 32.45 -25.6Q32.95 -24.4 32.95 -23.05L32.95 0L27.45 0L27.45 -23.05Q27.45 -23.5 27.1 -23.85Q26.75 -24.15 26.3 -24.15L9.4 -24.15Q8.95 -24.15 8.6 -23.85Q8.3 -23.5 8.3 -23.05L8.3 0L2.75 0L2.75 -29.7L26.3 -29.7" />
</g>
<g id="PathID_14" transform="matrix(1.44505, 0, 0, 1.44505, 484.25, 200.9)" opacity="1">
</g>
<g id="PathID_15" transform="matrix(1.44505, 0, 0, 1.44505, 535.75, 200.9)" opacity="1">
<path style="fill:#926161;fill-opacity:1" d="M2.65 -29.7L8.2 -29.7L8.2 0L2.65 0L2.65 -29.7M8.2 -39.4L8.2 -33.9L2.65 -33.9L2.65 -39.4L8.2 -39.4" />
</g>
<g id="PathID_16" transform="matrix(1.44505, 0, 0, 1.44505, 535.75, 200.9)" opacity="1">
</g>
<g id="PathID_17" transform="matrix(2.1139, 0, 0, 2.1139, 223.6, 129.45)" opacity="1">
<path style="fill:#5F2020;fill-opacity:1" d="M-35.7 9.15L-22.3 -9.15L35.7 9.15L-10 9.15L-21.95 -3.6L-32.35 9.15L-35.7 9.15" />
</g>
<g id="PathID_18" transform="matrix(2.1139, 0, 0, 2.1139, 223.6, 129.45)" opacity="1">
</g>
<g id="PathID_19" transform="matrix(0.454158, 0, 0, 0.454158, 176, 246)" opacity="1">
<path style="fill:#5F2020;fill-opacity:1" d="M17.25 -3.75Q30.35 -3.75 30.35 -18.85Q30.35 -32 17.25 -32L8.35 -32L8.35 -3.75L17.25 -3.75M3.75 0L3.75 -35.75L18.25 -35.75Q35 -35.75 35 -18.85Q35 0 18.25 0L3.75 0" />
</g>
<g id="PathID_20" transform="matrix(0.454158, 0, 0, 0.454158, 176, 246)" opacity="1">
</g>
<g id="PathID_21" transform="matrix(0.454158, 0, 0, 0.454158, 195.1, 246)" opacity="1">
<path style="fill:#5F2020;fill-opacity:1" d="M24.8 -11.8L7.1 -11.8Q7.1 -3.75 17.25 -3.75Q20.75 -3.75 24.2 -4.5L24.2 -0.75Q20.75 0 15.75 0Q2.5 0 2.5 -13.4Q2.5 -26.25 15.05 -26.25Q27.1 -26.25 24.8 -11.8M7.1 -15.65L20.55 -15.65Q20.9 -22.55 14.3 -22.55Q7.55 -22.55 7.1 -15.65" />
</g>
<g id="PathID_22" transform="matrix(0.454158, 0, 0, 0.454158, 195.1, 246)" opacity="1">
</g>
<g id="PathID_23" transform="matrix(0.454158, 0, 0, 0.454158, 210, 246)" opacity="1">
<path style="fill:#5F2020;fill-opacity:1" d="M0 -26.25L5 -26.25L12.5 -5.65L20 -26.25L25 -26.25L14.3 0L10 0L0 -26.25" />
</g>
<g id="PathID_24" transform="matrix(0.454158, 0, 0, 0.454158, 210, 246)" opacity="1">
</g>
<g id="PathID_25" transform="matrix(0.454158, 0, 0, 0.454158, 223.45, 246)" opacity="1">
<path style="fill:#5F2020;fill-opacity:1" d="M8.35 -35.75L8.35 -32L3.75 -32L3.75 -35.75L8.35 -35.75M8.35 -26.25L8.35 0L3.75 0L3.75 -26.25L8.35 -26.25" />
</g>
<g id="PathID_26" transform="matrix(0.454158, 0, 0, 0.454158, 223.45, 246)" opacity="1">
</g>
<g id="PathID_27" transform="matrix(0.454158, 0, 0, 0.454158, 231.05, 246)" opacity="1">
<path style="fill:#5F2020;fill-opacity:1" d="M3.75 0L3.75 -26.25L6.85 -26.25L7.7 -22.9Q12.45 -26.25 17.3 -26.25Q26.35 -26.25 26.35 -16.45L26.35 0L21.75 0L21.75 -16.55Q21.75 -22.4 15.9 -22.4Q11.95 -22.4 8.35 -19.05L8.35 0L3.75 0" />
</g>
<g id="PathID_28" transform="matrix(0.454158, 0, 0, 0.454158, 231.05, 246)" opacity="1">
</g>
<g id="PathID_29" transform="matrix(0.454158, 0, 0, 0.454158, 246.8, 246)" opacity="1">
<path style="fill:#5F2020;fill-opacity:1" d="M24.8 -11.8L7.1 -11.8Q7.1 -3.75 17.25 -3.75Q20.75 -3.75 24.2 -4.5L24.2 -0.75Q20.75 0 15.75 0Q2.5 0 2.5 -13.4Q2.5 -26.25 15.05 -26.25Q27.1 -26.25 24.8 -11.8M7.1 -15.65L20.55 -15.65Q20.9 -22.55 14.3 -22.55Q7.55 -22.55 7.1 -15.65" />
</g>
<g id="PathID_30" transform="matrix(0.454158, 0, 0, 0.454158, 246.8, 246)" opacity="1">
</g>
<g id="PathID_31" transform="matrix(0.454158, 0, 0, 0.454158, 269.3, 246)" opacity="1">
<path style="fill:#5F2020;fill-opacity:1" d="M8.35 -35.75L8.35 0L3.75 0L3.75 -35.75L8.35 -35.75" />
</g>
<g id="PathID_32" transform="matrix(0.454158, 0, 0, 0.454158, 269.3, 246)" opacity="1">
</g>
<g id="PathID_33" transform="matrix(0.454158, 0, 0, 0.454158, 276.9, 246)" opacity="1">
<path style="fill:#5F2020;fill-opacity:1" d="M3.75 0L3.75 -26.25L6.85 -26.25L7.7 -22.9Q12.45 -26.25 17.3 -26.25Q26.35 -26.25 26.35 -16.45L26.35 0L21.75 0L21.75 -16.55Q21.75 -22.4 15.9 -22.4Q11.95 -22.4 8.35 -19.05L8.35 0L3.75 0" />
</g>
<g id="PathID_34" transform="matrix(0.454158, 0, 0, 0.454158, 276.9, 246)" opacity="1">
</g>
<g id="PathID_35" transform="matrix(0.454158, 0, 0, 0.454158, 292.65, 246)" opacity="1">
<path style="fill:#5F2020;fill-opacity:1" d="M0 -26.25L5 -26.25L12.5 -5.65L20 -26.25L25 -26.25L14.3 0L10 0L0 -26.25" />
</g>
<g id="PathID_36" transform="matrix(0.454158, 0, 0, 0.454158, 292.65, 246)" opacity="1">
</g>
<g id="PathID_37" transform="matrix(0.454158, 0, 0, 0.454158, 306.1, 246)" opacity="1">
<path style="fill:#5F2020;fill-opacity:1" d="M24.8 -11.8L7.1 -11.8Q7.1 -3.75 17.25 -3.75Q20.75 -3.75 24.2 -4.5L24.2 -0.75Q20.75 0 15.75 0Q2.5 0 2.5 -13.4Q2.5 -26.25 15.05 -26.25Q27.1 -26.25 24.8 -11.8M7.1 -15.65L20.55 -15.65Q20.9 -22.55 14.3 -22.55Q7.55 -22.55 7.1 -15.65" />
</g>
<g id="PathID_38" transform="matrix(0.454158, 0, 0, 0.454158, 306.1, 246)" opacity="1">
</g>
<g id="PathID_39" transform="matrix(0.454158, 0, 0, 0.454158, 321, 246)" opacity="1">
<path style="fill:#5F2020;fill-opacity:1" d="M3.75 -1.25L3.75 -5.25Q8.1 -3.75 12.85 -3.75Q19.1 -3.75 19.1 -7.5Q19.1 -11 15 -11L10.75 -11Q2.5 -11 2.5 -18.75Q2.5 -26.25 13.4 -26.25Q18.1 -26.25 22.5 -25L22.5 -21Q18.1 -22.5 13.4 -22.5Q6.85 -22.5 6.85 -18.75Q6.85 -15.25 10.75 -15.25L15 -15.25Q23.75 -15.25 23.75 -7.5Q23.75 0 12.85 0Q8.1 0 3.75 -1.25" />
</g>
<g id="PathID_40" transform="matrix(0.454158, 0, 0, 0.454158, 321, 246)" opacity="1">
</g>
<g id="PathID_41" transform="matrix(0.454158, 0, 0, 0.454158, 334.95, 246)" opacity="1">
<path style="fill:#5F2020;fill-opacity:1" d="M3.75 -30.5L6.65 -30.5L7.65 -26.25L13.75 -26.25L13.75 -22.5L8.35 -22.5L8.35 -7.4Q8.35 -3.75 11.55 -3.75L13.75 -3.75L13.75 0L10.35 0Q3.75 0 3.75 -7.05L3.75 -30.5" />
</g>
<g id="PathID_42" transform="matrix(0.454158, 0, 0, 0.454158, 334.95, 246)" opacity="1">
</g>
<g id="PathID_43" transform="matrix(0.454158, 0, 0, 0.454158, 344.35, 246)" opacity="1">
<path style="fill:#5F2020;fill-opacity:1" d="M8.35 -35.75L8.35 -32L3.75 -32L3.75 -35.75L8.35 -35.75M8.35 -26.25L8.35 0L3.75 0L3.75 -26.25L8.35 -26.25" />
</g>
<g id="PathID_44" transform="matrix(0.454158, 0, 0, 0.454158, 344.35, 246)" opacity="1">
</g>
<g id="PathID_45" transform="matrix(0.454158, 0, 0, 0.454158, 351.95, 246)" opacity="1">
<path style="fill:#5F2020;fill-opacity:1" d="M3.75 0L3.75 -26.25L6.85 -26.25L7.7 -22.9Q12.45 -26.25 17.3 -26.25Q26.35 -26.25 26.35 -16.45L26.35 0L21.75 0L21.75 -16.55Q21.75 -22.4 15.9 -22.4Q11.95 -22.4 8.35 -19.05L8.35 0L3.75 0" />
</g>
<g id="PathID_46" transform="matrix(0.454158, 0, 0, 0.454158, 351.95, 246)" opacity="1">
</g>
<g id="PathID_47" transform="matrix(0.454158, 0, 0, 0.454158, 367.7, 246)" opacity="1">
<path style="fill:#5F2020;fill-opacity:1" d="M21.3 -21.8Q18.9 -22.4 15.4 -22.4Q7.05 -22.4 7.05 -13.3Q7.05 -4 14.95 -4Q18.55 -4 21.3 -5.35L21.3 -21.8M25.9 0Q25.9 9.5 13.85 9.5Q9 9.5 5.25 8.25L5.25 4.5Q9.05 5.75 13.9 5.75Q21.3 5.75 21.3 0L21.3 -1.25Q18.35 0 14.95 0Q2.5 0 2.5 -13.25Q2.5 -26.25 15.6 -26.25Q20.95 -26.25 25.9 -25.15L25.9 0" />
</g>
<g id="PathID_48" transform="matrix(0.454158, 0, 0, 0.454158, 367.7, 246)" opacity="1">
</g>
<g id="PathID_49" transform="matrix(2.1139, 0, 0, 2.1139, 280.3, 221)" opacity="1">
<path style="fill:#520F0F;fill-opacity:1" d="M61.75 -2.3L-61.75 3.15L-61.75 -3.15L61.75 -3.15L61.75 -2.3" />
</g>
<g id="PathID_50" transform="matrix(2.1139, 0, 0, 2.1139, 280.3, 221)" opacity="1">
</g>
</svg>
